<?xml version="1.0" standalone="no"?>
<!DOCTYPE svg PUBLIC "-//W3C//DTD SVG 20010904//EN"
 "http://www.w3.org/TR/2001/REC-SVG-20010904/DTD/svg10.dtd">
<svg version="1.0" xmlns="http://www.w3.org/2000/svg"
 width="260.000000pt" height="260.000000pt" viewBox="0 0 260.000000 260.000000"
 preserveAspectRatio="xMidYMid meet">
<metadata>
Created by potrace 1.11, written by Peter Selinger 2001-2013
</metadata>
<g transform="translate(0.000000,260.000000) scale(0.100000,-0.100000)"
fill="#000000" stroke="none">
<path d="M1490 1831 c-64 -25 -78 -31 -138 -57 -29 -13 -54 -24 -57 -24 -4 0
-479 -196 -522 -215 -17 -8 -34 -15 -37 -15 -3 0 -29 -10 -58 -23 -51 -23 -95
-41 -167 -69 -76 -29 -117 -54 -128 -79 -7 -15 -55 -150 -106 -300 -81 -239
-96 -274 -115 -277 -12 -2 -22 -8 -22 -13 0 -5 453 -9 1165 -9 763 0 1165 3
1165 10 0 6 -193 11 -545 12 l-545 3 23 26 c12 15 56 67 97 117 41 50 80 91
85 91 6 0 37 -33 70 -73 54 -66 63 -72 93 -70 19 1 37 6 41 10 75 90 117 140
121 144 3 3 27 32 54 65 27 33 53 64 57 69 7 8 115 -25 194 -59 51 -22 198
-76 200 -73 1 2 11 19 23 39 l22 36 -105 87 c-58 48 -111 93 -118 99 -6 7 -82
70 -167 142 -85 71 -157 132 -160 135 -3 3 -30 25 -60 50 -30 25 -60 49 -66
55 -6 5 -32 28 -59 50 -59 48 -128 108 -135 116 -13 15 -59 15 -100 0z m-413
-874 c7 -4 46 -48 88 -97 l76 -90 -468 0 -468 0 35 28 c19 15 55 45 81 67 25
22 61 54 81 70 l34 30 265 0 c145 0 269 -4 276 -8z"/>
</g>
</svg>
